<svg width="32" height="32" viewBox="0 0 32 32" fill="none" xmlns="http://www.w3.org/2000/svg">
<path d="M2 14.5076V16.0176L3.5 14.5176C4.32667 13.6942 5 13.0142 5 13.0109C5 13.0042 4.32667 13.0009 3.5 13.0009H2V14.5076Z" fill="white"/>
<path d="M6.5166 14.5L5.0166 16H6.5166H8.0166L9.5166 14.5L11.0166 13H9.5166H8.0166L6.5166 14.5Z" fill="white"/>
<path d="M12.5166 14.5L11.0166 16H14.0099H16.9999V14.5V13H15.5066H14.0166L12.5166 14.5Z" fill="white"/>
<path d="M20 16V19H21.5H23V16V13H21.5H20V16Z" fill="white"/>
<path d="M26 16V19H27.5H29V16V13H27.5H26V16Z" fill="white"/>
</svg>
